<?xml version="1.0" standalone="no"?>
<!DOCTYPE svg PUBLIC "-//W3C//DTD SVG 20010904//EN"
 "http://www.w3.org/TR/2001/REC-SVG-20010904/DTD/svg10.dtd">
<svg version="1.0" xmlns="http://www.w3.org/2000/svg"
 width="300.000000pt" height="300.000000pt" viewBox="0 0 300.000000 300.000000"
 preserveAspectRatio="xMidYMid meet">
<metadata>
Created by potrace 1.10, written by Peter Selinger 2001-2011
</metadata>
<g transform="translate(0.000000,300.000000) scale(0.100000,-0.100000)"
fill="#000000" stroke="none">
<path d="M481 1730 c-21 -22 -42 -52 -45 -66 -4 -15 -15 -34 -25 -43 -10 -9
-26 -50 -36 -93 -17 -74 -17 -79 0 -147 10 -38 29 -82 42 -97 13 -15 23 -39
23 -54 0 -15 9 -35 21 -45 18 -17 36 -19 164 -17 153 2 165 5 251 69 17 13 44
23 61 23 30 0 63 26 63 50 0 7 -9 27 -20 45 -20 32 -20 32 0 50 23 21 27 84 8
103 -10 10 -10 17 0 32 15 25 15 80 -1 101 -7 9 -25 23 -42 32 -16 8 -48 34
-70 56 l-39 41 -158 0 -158 0 -39 -40z m359 -87 l0 -88 -147 3 c-81 2 -145 1
-142 -2 3 -3 67 -6 143 -7 118 -2 141 -5 162 -21 19 -15 23 -16 18 -4 -3 9 -9
16 -13 16 -12 0 -5 144 7 148 18 6 27 -28 14 -49 -14 -22 -16 -89 -3 -89 5 0
9 -34 9 -75 -1 -48 -4 -72 -11 -68 -6 3 -7 1 -3 -5 4 -7 13 -12 20 -12 6 0 29
-18 50 -39 36 -37 41 -61 12 -61 -15 0 -64 50 -80 81 -21 41 -31 25 -34 -53
l-3 -78 -159 0 -159 0 -3 238 c-2 130 -2 240 0 245 2 4 75 7 163 7 l159 0 0
-87z m-332 2 c3 -28 -1 -43 -13 -51 -9 -7 -15 -17 -12 -21 3 -5 7 -63 8 -129
0 -65 4 -123 7 -129 4 -5 7 -17 7 -25 1 -8 2 -25 3 -37 2 -23 4 -23 137 -23
113 0 135 -2 135 -15 0 -13 -24 -15 -155 -15 l-155 0 0 64 c0 42 4 66 13 70 6
3 2 3 -9 1 -27 -7 -88 50 -81 75 2 9 1 24 -4 33 -6 9 -3 28 6 49 11 27 11 38
2 48 -10 10 -9 12 4 7 9 -3 22 0 28 6 13 13 15 31 2 22 -14 -8 -25 15 -14 26
6 6 15 4 23 -6 22 -27 30 -16 30 41 0 47 3 55 18 52 12 -2 18 -15 20 -43z
m437 -7 c35 -16 36 -73 1 -89 -52 -24 -90 38 -49 83 19 21 16 21 48 6z m35
-148 c0 -5 -13 -10 -29 -10 -17 0 -33 5 -36 10 -4 6 8 10 29 10 20 0 36 -4 36
-10z m-5 -30 c-3 -5 -17 -10 -31 -10 -13 0 -24 5 -24 10 0 6 14 10 31 10 17 0
28 -4 24 -10z m5 -30 c0 -5 -13 -10 -30 -10 -16 0 -30 5 -30 10 0 6 14 10 30
10 17 0 30 -4 30 -10z m-102 -77 c19 -41 16 -73 -8 -73 -17 0 -19 6 -17 50 1
27 4 50 7 50 3 0 11 -12 18 -27z"/>
<path d="M554 1691 c-2 -2 -4 -26 -4 -53 l0 -48 51 0 50 0 -3 51 -3 52 -43 1
c-24 1 -46 -1 -48 -3z m31 -35 c0 -13 -6 -29 -12 -35 -10 -9 -13 -4 -13 24 0
21 5 35 13 35 6 0 12 -11 12 -24z m55 -11 c0 -28 -3 -33 -12 -24 -7 6 -13 22
-13 35 0 13 6 24 13 24 7 0 12 -14 12 -35z"/>
<path d="M730 1660 l-55 -7 68 -1 c43 -1 66 2 62 8 -3 6 -9 9 -13 8 -4 -1 -32
-4 -62 -8z"/>
<path d="M707 1623 c18 -2 50 -2 70 0 21 2 7 4 -32 4 -38 0 -55 -2 -38 -4z"/>
<path d="M730 1529 c0 -6 -30 -10 -85 -8 -47 1 -88 -1 -92 -5 -3 -3 30 -6 75
-6 48 0 82 -4 82 -10 0 -6 -33 -10 -80 -10 -53 0 -80 -4 -80 -11 0 -8 22 -10
75 -5 63 6 75 4 75 -8 0 -12 -17 -16 -77 -19 l-78 -3 83 -2 c107 -3 109 -22 2
-22 -47 0 -80 -4 -80 -10 0 -6 36 -10 88 -10 61 -1 93 -5 106 -15 11 -8 36
-14 55 -14 l36 1 -38 8 c-37 7 -75 30 -50 30 7 0 15 -4 18 -10 11 -18 61 -11
83 13 68 72 -28 165 -102 99 -14 -13 -17 -27 -13 -59 5 -49 1 -55 -14 -17 -7
21 -5 35 9 65 11 22 16 39 11 39 -5 0 -9 -5 -9 -11z m111 -19 c28 -15 26 -74
-3 -94 -30 -21 -54 -20 -78 4 -54 54 12 126 81 90z"/>
<path d="M544 1318 c-4 -6 2 -17 12 -25 15 -11 42 -13 134 -7 63 3 117 8 119
10 2 2 1 10 -2 19 -5 12 -28 15 -131 15 -83 0 -127 -4 -132 -12z m176 -8 c0
-6 -33 -10 -80 -10 -47 0 -80 4 -80 10 0 6 33 10 80 10 47 0 80 -4 80 -10z"/>
<path d="M447 1553 c-8 -7 11 -33 24 -33 5 0 9 9 9 20 0 19 -20 27 -33 13z"/>
<path d="M420 1522 c0 -4 10 -13 21 -20 17 -11 24 -11 33 -1 8 9 7 11 -6 6
-12 -4 -18 -1 -18 8 0 8 -7 15 -15 15 -8 0 -15 -3 -15 -8z"/>
<path d="M407 1484 c-11 -11 -8 -44 4 -44 5 0 7 5 4 10 -13 21 7 31 31 16 29
-20 34 -20 34 -1 0 8 -6 15 -12 15 -7 0 -22 3 -33 6 -11 3 -24 2 -28 -2z"/>
<path d="M460 1430 c0 -5 -11 -10 -25 -10 -14 0 -25 -4 -25 -9 0 -10 27 -8 53
3 18 9 23 26 7 26 -5 0 -10 -4 -10 -10z"/>
<path d="M457 1393 c-13 -12 -7 -43 8 -43 18 0 20 16 3 23 -10 4 -10 6 0 6 6
1 12 6 12 11 0 11 -13 13 -23 3z"/>
<path d="M1052 1547 c-17 -18 -22 -36 -22 -79 0 -92 18 -99 240 -97 14 0 36 0
50 -1 14 0 115 0 225 0 166 1 203 4 217 17 15 14 20 14 34 2 17 -14 37 -15
306 -19 60 -1 82 -5 101 -20 31 -24 46 -25 77 -3 22 16 128 26 241 24 32 0 50
19 72 78 18 47 11 76 -20 84 -10 3 -88 4 -173 3 -134 -1 -159 1 -182 16 -32
22 -46 23 -69 2 -28 -25 -205 -27 -238 -2 -13 10 -32 18 -41 18 -18 0 -70 -53
-70 -72 0 -5 -13 1 -29 15 -29 24 -32 24 -178 21 -81 -2 -155 -4 -163 -5 -8 0
-66 2 -128 5 -77 4 -119 10 -135 21 -33 23 -89 19 -115 -8z m857 -63 c11 -31
21 -62 21 -70 0 -19 -19 -18 -26 1 -4 8 -17 15 -30 15 -14 0 -27 -7 -30 -15
-5 -13 -34 -22 -34 -11 0 4 22 66 39 109 16 42 36 32 60 -29z m282 44 c-1 -5
-1 -35 -1 -69 0 -85 -22 -73 -25 14 -3 56 -1 68 11 65 8 -2 15 -6 15 -10z
m-1027 -20 c8 -14 7 -22 -6 -34 -15 -15 -15 -20 -2 -46 13 -25 13 -28 -1 -28
-8 0 -21 11 -27 25 -14 31 -26 32 -30 3 -2 -13 -9 -23 -17 -23 -9 0 -14 17
-15 63 l-1 63 44 -3 c28 -2 48 -9 55 -20z m102 -32 c14 -55 -16 -89 -60 -68
-19 8 -26 19 -26 40 0 35 16 52 52 52 21 0 29 -6 34 -24z m102 5 c3 -10 -3
-11 -28 -6 -23 5 -30 4 -26 -4 4 -6 16 -11 27 -11 26 0 36 -28 16 -47 -19 -19
-67 -10 -67 12 0 17 16 20 25 5 8 -13 25 -13 25 0 0 5 -11 12 -25 16 -24 6
-34 32 -18 48 12 12 66 2 71 -13z m42 -17 c0 -28 3 -35 18 -32 11 2 18 14 20
36 2 20 9 32 18 32 12 0 14 -11 12 -47 -3 -45 -5 -48 -33 -50 -43 -3 -56 8
-62 56 -5 33 -3 41 11 41 12 0 16 -9 16 -36z m232 22 c4 -6 8 -28 8 -48 0 -27
-4 -38 -15 -38 -11 0 -15 11 -15 40 0 29 -4 40 -15 40 -11 0 -15 -11 -15 -40
0 -54 -27 -56 -32 -2 -2 25 -8 37 -18 37 -11 0 -14 -10 -13 -37 2 -28 -2 -38
-12 -38 -11 0 -15 13 -15 50 l0 49 68 -1 c37 0 70 -6 74 -12z m108 -1 c14 -17
5 -65 -13 -77 -23 -15 -47 -8 -63 17 -24 37 -6 75 35 75 16 0 34 -7 41 -15z
m288 -37 c2 -38 0 -48 -12 -48 -12 0 -16 10 -16 40 0 29 -4 40 -15 40 -11 0
-15 -11 -15 -40 0 -29 -4 -40 -15 -40 -11 0 -15 12 -15 51 l0 50 43 -3 42 -3
3 -47z m95 45 c3 -5 7 -26 8 -48 l4 -40 -40 0 c-36 0 -40 3 -40 25 0 20 6 26
28 28 15 2 27 8 27 13 0 7 -12 8 -30 4 -28 -6 -39 3 -23 18 9 9 61 9 66 0z
m116 -25 l9 -33 12 33 c7 17 18 32 26 32 17 0 18 5 -7 -60 -24 -63 -36 -80
-55 -80 -17 0 -18 27 -1 33 12 4 9 14 -20 95 -3 6 2 12 11 12 9 0 19 -13 25
-32z m151 26 c0 -3 -9 -17 -20 -31 -11 -14 -20 -29 -20 -33 0 -5 9 -6 20 -3
14 4 20 0 20 -11 0 -12 -10 -16 -40 -16 -45 0 -49 9 -19 51 l20 29 -20 0 c-12
0 -21 5 -21 10 0 6 18 10 40 10 22 0 40 -3 40 -6z m98 -32 c4 -37 -12 -62 -39
-62 -40 0 -65 60 -37 88 7 7 26 12 43 10 26 -3 30 -7 33 -36z m82 29 c0 -5 -7
-11 -15 -15 -9 -3 -15 -19 -15 -41 0 -24 -4 -35 -15 -35 -11 0 -15 12 -15 50
0 49 1 50 30 50 17 0 30 -4 30 -9z"/>
<path d="M1100 1490 c0 -15 5 -20 18 -18 9 2 17 10 17 18 0 8 -8 16 -17 18
-13 2 -18 -3 -18 -18z"/>
</g>
</svg>
